<svg width="32" height="32" viewBox="0 0 5.12 5.12" xmlns="http://www.w3.org/2000/svg" aria-hidden="true" class="iconify iconify--noto"><path d="M2.532 0.397c0.597 0.009 0.656 0.144 0.831 0.149 0.253 0.007 0.639 -0.479 1.163 -0.04 0.516 0.433 0.096 1.112 0.096 1.112s0.287 0.509 0.321 1.284c0.024 0.561 -0.192 1.26 -1.16 1.656 -0.892 0.365 -2.222 0.292 -3.035 -0.332C0.116 3.742 0.16 3.037 0.178 2.796c0.045 -0.631 0.321 -1.138 0.321 -1.138s-0.408 -0.806 0.09 -1.188c0.546 -0.42 0.935 0.074 1.16 0.056 0.164 -0.014 0.217 -0.138 0.783 -0.13z" fill="#855b52"/><path d="M1.439 0.831c-0.008 -0.044 -0.297 -0.332 -0.597 -0.04 -0.231 0.225 0 0.617 0.04 0.586 0.03 -0.024 0.142 -0.168 0.273 -0.293 0.134 -0.128 0.287 -0.236 0.284 -0.253zm2.261 0.003c-0.002 0.025 0.152 0.118 0.293 0.25 0.142 0.134 0.27 0.307 0.293 0.304 0.045 -0.006 0.239 -0.386 -0.014 -0.6s-0.566 -0.028 -0.572 0.045z" fill="#b99277"/><path d="M2.58 2.415c0.586 0 0.937 0.661 0.916 1.074 -0.019 0.376 -0.233 0.687 -0.954 0.683 -0.721 -0.004 -0.904 -0.334 -0.916 -0.687 -0.011 -0.315 0.214 -1.07 0.954 -1.07z" fill="#f2a258"/><path d="M3.717 2.388c0.013 0.166 -0.076 0.318 -0.247 0.305 -0.165 -0.013 -0.285 -0.146 -0.285 -0.314s0.089 -0.286 0.222 -0.304c0.163 -0.023 0.291 0.076 0.31 0.312z" fill="#171716"/><path d="M2.982 3.08c-0.014 0.166 -0.124 0.344 -0.445 0.333 -0.269 -0.01 -0.396 -0.189 -0.4 -0.356 -0.006 -0.236 0.12 -0.322 0.424 -0.327 0.347 -0.004 0.439 0.12 0.42 0.349z" fill="#2f3030"/><path d="M1.935 2.45c-0.017 0.166 -0.173 0.282 -0.319 0.247 -0.16 -0.039 -0.232 -0.208 -0.199 -0.372 0.03 -0.146 0.158 -0.26 0.304 -0.244 0.152 0.017 0.236 0.16 0.214 0.369z" fill="#171716"/><path d="M2.56 3.802c0.22 0 0.34 -0.121 0.374 -0.155s0.08 -0.091 0.15 -0.034c0.06 0.049 0.001 0.125 -0.026 0.154 -0.049 0.052 -0.196 0.212 -0.517 0.198 -0.315 -0.014 -0.436 -0.157 -0.47 -0.19 -0.034 -0.034 -0.09 -0.12 -0.026 -0.169 0.076 -0.058 0.101 0.008 0.18 0.071s0.128 0.124 0.337 0.124z" fill="#2f3030"/></svg>